<svg xmlns="http://www.w3.org/2000/svg" viewBox="0 0 277.46 92.59"> <defs> <style> .a { fill: #1c3f94; } .b, .c { fill: #fff; } .b, .e { fill-rule: evenodd; } .d, .e { fill: #f78f1e; } </style> </defs> <title>dayton-freight-logo</title> <path class="a" d="M167.42,442.48h244.3l2.38-6.62H169.65Zm31.1-92.07-16.2,47.93h245.3l17.27-47.93Z" transform="translate(-167.42 -349.99)"> </path> <path class="b" d="M239,393.72l19.58-27.95h17.73l1.05,27.95H267l-.1-2.24-13.93.05-1.55,2.18Zm19.21-9.82h8.11l-.41-10.9Z" transform="translate(-167.42 -349.99)"> </path> <path class="c" d="M230.42,365.44s4.84.63,6.14,1.43c6.1,2.43,8.19,8.63,6.85,14.13-1.47,6-6.15,11.64-13.55,12.6a41.54,41.54,0,0,1-5,.13l-21.71,0,5.62-16.26,11.27-.17L217.5,385l8.43,0c4-.28,5.37-2.71,5.73-4.91.46-2.85-.85-5.4-5.29-6.07l-8.43,0H203.34l3-8.66h24.1" transform="translate(-167.42 -349.99)"> </path> <polygon class="c" points="110.91 15.79 121.08 34 113.28 43.73 126.29 43.75 148.85 15.79 136.1 15.79 128.68 24.67 123.66 15.79 110.91 15.79"> </polygon> <polygon class="c" points="2.23 85.88 14.9 48.35 260.2 48.35 246.68 85.88 2.23 85.88"> </polygon> <polygon class="c" points="223.38 15.79 237.75 15.79 242.22 31.46 253.51 0 265.44 0 249.62 43.73 235.21 43.73 230.59 28.4 225.15 43.73 213.54 43.73 223.38 15.79"> </polygon> <polygon class="d" points="22.05 81.72 32.29 53.03 58.53 53.03 55.81 60.7 41.36 60.7 39.55 65.48 53.59 65.48 50.76 73.47 36.72 73.47 33.87 81.77 22.05 81.72"> </polygon> <polygon class="d" points="99.75 53.03 89.39 81.77 114.33 81.72 116.71 74.9 103.69 74.81 105.12 70.56 118.13 70.56 120.27 64.23 107.45 64.23 108.76 60.31 121.7 60.28 124.27 53.03 99.75 53.03"> </polygon> <polygon class="d" points="129.2 53.03 119.17 81.77 130.98 81.77 141.1 53.03 129.2 53.03"> </polygon> <path class="d" d="M343,402.81s-32.7-4.25-36.71,15.25,26.18,13.65,26.18,13.65l5.3-14.58H327l-1.92,5.7s-9.44,2.39-7.54-4.46c2.82-10.16,22.67-8,22.67-8l2.85-7.57" transform="translate(-167.42 -349.99)"> </path> <polygon class="d" points="179.93 52.82 169.82 81.77 181.27 81.77 184.96 71.6 194.31 71.6 190.62 81.77 202.31 81.77 212.6 52.82 201.04 52.82 197.23 63.61 187.58 63.61 191.5 52.82 179.93 52.82"> </polygon> <polygon class="d" points="216.25 52.82 213.25 61.59 223.55 61.59 216.32 81.77 227.12 81.77 234.28 61.59 243.46 61.59 246.58 52.82 216.25 52.82"> </polygon> <path class="e" d="M229.63,403H251s8.05,1.46,7.61,9.32c-.41,7.16-10.59,9.23-10.59,9.23l4.89,10.19H241.63l-4.46-10.19h-2.52L231,431.76H219.51L229.63,403m8.94,7.25-1.9,5.51h6.83s3.4-.18,3.75-2.17a2.57,2.57,0,0,0-2.63-3.22Z" transform="translate(-167.42 -349.99)"> </path> <path class="b" d="M370,364.28c-10.43-1.15-18.69,3.29-21.58,12.93-2.63,8.77,1.31,16.19,11.25,17.9,12.61,2.17,21.76-4.33,23.5-14.08,1.31-7.26-2.73-15.59-13.17-16.74m1.95,16c-.63,3.55-4,5.92-8.57,5.13-3.63-.62-5.07-3.33-4.11-6.52,1.06-3.51,4.07-5.13,7.87-4.71a5.12,5.12,0,0,1,4.81,6.11" transform="translate(-167.42 -349.99)"> </path> <polygon class="c" points="183.86 15.85 150.88 15.85 143.7 25.33 158.36 25.33 151.37 43.79 162.91 43.79 169.89 25.33 180.36 25.33 183.86 15.85"> </polygon> <path class="a" d="M420.68,435.86a3.36,3.36,0,1,1-3.35,3.37A3.36,3.36,0,0,1,420.68,435.86Zm0,6.11a2.76,2.76,0,1,0-2.75-2.75A2.76,2.76,0,0,0,420.68,442Zm-.66-1h-.77v-3.6h1.68c.21,0,1.37,0,1.37,1.07a1,1,0,0,1-.67,1l.67,1.56h-.81l-.58-1.43H420Zm0-2h.8c.26,0,.68-.07.68-.51,0-.21-.15-.47-.62-.47H420Z" transform="translate(-167.42 -349.99)"> </path> </svg>